<svg width="25" height="21" viewBox="0 0 25 21" fill="none" xmlns="http://www.w3.org/2000/svg">
<path d="M23.8071 16.2857C23.8071 16.2857 23.8 16.2857 23.8071 16.2857C23.793 16.2857 23.7859 16.2857 23.7788 16.2857C23.7153 16.2927 23.6588 16.3138 23.6023 16.3419C23.4752 16.3841 23.341 16.4192 23.2068 16.4403C21.6602 16.6932 20.5444 16.2998 19.711 15.281C19.1955 14.6276 18.8777 13.8126 18.7365 12.9625C21.4271 9.11241 23.115 5.1569 23.2068 4.98126C23.4328 4.4754 23.3763 3.87822 23.0938 3.42857C23.0091 3.00702 22.7478 2.60655 22.3805 2.35362C22.1192 2.18501 15.8834 -1.88993 8.15031 2.29742C3.16444 5.01639 -0.15477 10.0539 0.332518 14.2693C0.530258 15.9696 1.53308 18.9977 6.11642 20.2974C6.80144 20.4941 7.46529 20.5784 8.12207 20.5784C11.2435 20.5784 14.0472 18.5691 16.3142 16.1382C16.5401 16.5878 16.8014 16.9883 17.1192 17.3817C18.687 19.3841 21.074 20.2272 23.8353 19.7916H23.8424C24.2732 19.7916 24.6263 19.0117 24.6263 18.0492C24.6263 17.0866 24.2379 16.2857 23.8071 16.2857ZM15.9964 8.49414C15.5373 9.56908 15.3113 10.7845 15.3396 12C13.1362 14.8876 10.0712 17.8876 7.09099 17.0375C5.05709 16.4684 3.94128 15.3934 3.77178 13.897C3.45399 11.1007 6.14467 7.30679 9.89467 5.26932C11.9286 4.16627 13.7859 3.82903 15.3961 3.82903C16.8014 3.82903 17.9738 4.11007 18.8636 4.39812C17.882 5.29742 16.7944 6.62529 15.9964 8.49414Z" fill="#6DC1FD"/>
</svg>
