<svg width="74" height="23" viewBox="0 0 74 23" fill="none" xmlns="http://www.w3.org/2000/svg">
<path d="M22.9672 23H13.831V21.9024C14.6349 21.8509 15.2996 21.7478 15.8252 21.5932C16.3611 21.4386 16.6291 21.248 16.6291 21.0212C16.6291 20.9285 16.6188 20.8151 16.5981 20.6811C16.5775 20.5472 16.5466 20.4287 16.5054 20.3256L14.6812 15.4096H6.99812C6.70955 16.1311 6.47251 16.7597 6.287 17.2956C6.1118 17.8315 5.95206 18.3262 5.80777 18.7797C5.6738 19.2229 5.58104 19.5836 5.52951 19.8618C5.47798 20.1401 5.45222 20.3668 5.45222 20.542C5.45222 20.9543 5.77686 21.2737 6.42613 21.5005C7.07541 21.7272 7.80714 21.8612 8.62131 21.9024V23H0.366211V21.9024C0.634167 21.8818 0.969111 21.8251 1.37104 21.7324C1.77298 21.6293 2.10277 21.4953 2.36042 21.3304C2.77266 21.0522 3.09215 20.7636 3.31888 20.4647C3.54561 20.1555 3.76719 19.733 3.98361 19.1971C5.08635 16.4454 6.30246 13.3536 7.63193 9.92169C8.96141 6.4898 10.1466 3.43407 11.1875 0.754517H12.4242L19.7363 19.6763C19.8909 20.0782 20.0661 20.4029 20.2619 20.6502C20.4577 20.8976 20.7308 21.1398 21.0812 21.3768C21.3183 21.5211 21.6275 21.6448 22.0088 21.7478C22.3901 21.8406 22.7096 21.8921 22.9672 21.9024V23ZM14.1247 14.0338L10.801 5.53134L7.53918 14.0338H14.1247Z" fill="#404040"/>
<path d="M48.286 23H42.3806C41.0718 20.9491 39.8866 19.1765 38.8251 17.6821C37.7739 16.1877 36.6299 14.647 35.3932 13.0599H33.1516V20.0164C33.1516 20.3771 33.2083 20.6966 33.3217 20.9749C33.435 21.2428 33.6772 21.4489 34.0482 21.5932C34.2338 21.6654 34.5584 21.7324 35.0222 21.7942C35.4859 21.856 35.8776 21.8921 36.197 21.9024V23H26.9217V21.9024C27.169 21.8818 27.5246 21.8457 27.9883 21.7942C28.4624 21.7427 28.7922 21.6757 28.9777 21.5932C29.2869 21.4592 29.5085 21.2634 29.6424 21.0058C29.7867 20.7481 29.8589 20.4183 29.8589 20.0164V4.15549C29.8589 3.79478 29.8073 3.4753 29.7043 3.19704C29.6012 2.91878 29.359 2.7075 28.9777 2.56322C28.72 2.47046 28.3851 2.38802 27.9729 2.31587C27.5606 2.23343 27.2102 2.1819 26.9217 2.16128V1.0637H37.0473C37.9748 1.0637 38.8457 1.1616 39.6599 1.35742C40.474 1.54292 41.2109 1.84695 41.8705 2.2695C42.5095 2.68174 43.0196 3.2228 43.4009 3.89269C43.7823 4.55227 43.9729 5.35099 43.9729 6.28883C43.9729 7.13392 43.8441 7.88111 43.5864 8.53039C43.3288 9.17966 42.9475 9.74134 42.4425 10.2154C41.9787 10.6586 41.4222 11.045 40.7729 11.3748C40.1236 11.6943 39.4074 11.9674 38.6241 12.1942C39.7062 13.6267 40.6029 14.8325 41.314 15.8116C42.0354 16.7906 42.9165 17.981 43.9575 19.3826C44.4109 20.001 44.818 20.4596 45.1787 20.7584C45.5497 21.047 45.9156 21.284 46.2763 21.4696C46.5443 21.6035 46.8792 21.7066 47.2811 21.7787C47.6831 21.8509 48.018 21.8921 48.286 21.9024V23ZM40.1545 6.64439C40.1545 5.31492 39.7732 4.26371 39.0106 3.49076C38.2479 2.7075 37.171 2.31587 35.7797 2.31587H33.1516V11.7304H35.1768C36.599 11.7304 37.7842 11.2769 38.7323 10.37C39.6805 9.45277 40.1545 8.2109 40.1545 6.64439Z" fill="#404040"/>
<path d="M73.6047 23H67.452C66.2668 21.1655 64.9477 19.3465 63.4945 17.543C62.0517 15.7291 60.5367 13.9719 58.9496 12.2715H58.5476V19.9082C58.5476 20.2483 58.6095 20.5523 58.7332 20.8203C58.8671 21.0882 59.1042 21.3047 59.4443 21.4696C59.6092 21.5417 59.9132 21.6293 60.3563 21.7324C60.8098 21.8354 61.186 21.8921 61.4849 21.9024V23H52.3795V21.9024C52.6165 21.8818 52.9618 21.8509 53.4153 21.8097C53.8687 21.7684 54.1882 21.7066 54.3737 21.6241C54.6829 21.4902 54.9045 21.2944 55.0385 21.0367C55.1827 20.7687 55.2549 20.4493 55.2549 20.0782V4.24825C55.2549 3.89784 55.193 3.59382 55.0694 3.33617C54.956 3.07852 54.7241 2.86724 54.3737 2.70235C54.0955 2.56837 53.7657 2.44985 53.3843 2.34679C53.003 2.24373 52.6681 2.1819 52.3795 2.16128V1.0637H61.4849V2.16128C61.1963 2.17159 60.8356 2.21797 60.4027 2.30042C59.9699 2.38286 59.6504 2.46016 59.4443 2.5323C59.0939 2.65597 58.8568 2.86209 58.7332 3.15066C58.6095 3.43923 58.5476 3.75356 58.5476 4.09366V11.6686H58.8568C59.7844 10.8853 60.6964 10.0711 61.5931 9.22604C62.4897 8.37064 63.3039 7.5204 64.0356 6.67531C64.8498 5.73746 65.4424 4.99028 65.8134 4.43375C66.1947 3.86693 66.3853 3.36709 66.3853 2.93423C66.3853 2.77964 66.2874 2.65597 66.0916 2.56322C65.9061 2.46016 65.6897 2.37771 65.4424 2.31587C65.1538 2.25404 64.8961 2.21797 64.6694 2.20766C64.4427 2.18705 64.2572 2.17159 64.1129 2.16128V1.0637H72.3371V2.16128C72.3061 2.16128 72.2392 2.16644 72.1361 2.17674C72.033 2.18705 71.9145 2.19736 71.7805 2.20766C71.6362 2.21797 71.492 2.23858 71.3477 2.2695C71.2034 2.30041 71.0179 2.33649 70.7912 2.37771C70.4305 2.46016 70.0543 2.59414 69.6627 2.77964C69.2813 2.95485 68.967 3.17642 68.7197 3.44438C67.6581 4.65018 66.5502 5.89721 65.396 7.18545C64.2417 8.4737 63.0977 9.64859 61.9641 10.7101C63.5306 12.4827 64.824 14.008 65.8443 15.286C66.8749 16.5639 67.9673 17.9294 69.1216 19.3826C69.5647 19.9391 70.0079 20.3874 70.4511 20.7275C70.8942 21.0573 71.2755 21.3047 71.595 21.4696C71.863 21.6035 72.1979 21.7066 72.5999 21.7787C73.0018 21.8509 73.3367 21.8921 73.6047 21.9024V23Z" fill="#404040"/>
</svg>
