<svg width="57" height="18" viewBox="0 0 57 18" fill="none" xmlns="http://www.w3.org/2000/svg">
<path d="M17.9203 18H10.8831V17.1546C11.5022 17.1149 12.0142 17.0355 12.4191 16.9164C12.8319 16.7974 13.0383 16.6505 13.0383 16.4759C13.0383 16.4044 13.0303 16.3171 13.0145 16.2139C12.9986 16.1107 12.9748 16.0194 12.943 15.94L11.538 12.1535H5.62003C5.39776 12.7092 5.21518 13.1934 5.07229 13.6062C4.93734 14.019 4.8143 14.4 4.70317 14.7493C4.59997 15.0907 4.52853 15.3685 4.48884 15.5828C4.44915 15.7972 4.4293 15.9718 4.4293 16.1067C4.4293 16.4243 4.67935 16.6704 5.17946 16.845C5.67957 17.0196 6.24318 17.1228 6.87029 17.1546V18H0.511801V17.1546C0.718194 17.1387 0.976185 17.095 1.28577 17.0236C1.59536 16.9442 1.84939 16.841 2.04784 16.714C2.36537 16.4997 2.61145 16.2774 2.78609 16.0472C2.96073 15.8091 3.13141 15.4836 3.29811 15.0708C4.14749 12.9513 5.0842 10.5699 6.10823 7.92643C7.13226 5.28301 8.04515 2.92934 8.84691 0.865407H9.79949L15.4316 15.4399C15.5507 15.7495 15.6857 15.9996 15.8365 16.1901C15.9873 16.3806 16.1977 16.5672 16.4676 16.7497C16.6502 16.8609 16.8883 16.9561 17.182 17.0355C17.4757 17.107 17.7218 17.1466 17.9203 17.1546V18ZM11.1093 11.0938L8.54922 4.54476L6.03678 11.0938H11.1093Z" fill="#D2D2D2"/>
<path d="M37.422 18H32.8734C31.8653 16.4203 30.9524 15.0549 30.1348 13.9039C29.3251 12.7529 28.4439 11.5661 27.4913 10.3436H25.7648V15.7019C25.7648 15.9797 25.8084 16.2258 25.8958 16.4401C25.9831 16.6465 26.1696 16.8053 26.4554 16.9164C26.5983 16.972 26.8483 17.0236 27.2056 17.0712C27.5628 17.1189 27.8644 17.1466 28.1105 17.1546V18H20.9661V17.1546C21.1567 17.1387 21.4305 17.1109 21.7878 17.0712C22.1529 17.0315 22.4069 16.9799 22.5498 16.9164C22.788 16.8132 22.9586 16.6624 23.0618 16.464C23.173 16.2655 23.2285 16.0115 23.2285 15.7019V3.48501C23.2285 3.20717 23.1888 2.96109 23.1095 2.74676C23.0301 2.53243 22.8435 2.3697 22.5498 2.25856C22.3514 2.18712 22.0934 2.12361 21.7758 2.06804C21.4583 2.00454 21.1884 1.96485 20.9661 1.94897V1.10355H28.7654C29.4799 1.10355 30.1506 1.17897 30.7778 1.32979C31.4049 1.47268 31.9725 1.70686 32.4805 2.03232C32.9727 2.34985 33.3656 2.7666 33.6593 3.28259C33.953 3.79063 34.0999 4.40584 34.0999 5.12822C34.0999 5.77915 34.0007 6.35467 33.8022 6.85478C33.6038 7.35488 33.31 7.78751 32.9211 8.15267C32.5638 8.49401 32.1352 8.79169 31.6351 9.04572C31.135 9.2918 30.5833 9.50216 29.98 9.6768C30.8135 10.7802 31.5041 11.709 32.0518 12.4631C32.6075 13.2172 33.2862 14.1341 34.088 15.2137C34.4373 15.69 34.7508 16.0432 35.0287 16.2734C35.3144 16.4957 35.5962 16.6783 35.8741 16.8212C36.0805 16.9244 36.3385 17.0038 36.6481 17.0593C36.9576 17.1149 37.2156 17.1466 37.422 17.1546V18ZM31.1588 5.40209C31.1588 4.37806 30.8651 3.56836 30.2776 2.973C29.6902 2.3697 28.8607 2.06804 27.789 2.06804H25.7648V9.31958H27.3246C28.4201 9.31958 29.333 8.9703 30.0633 8.27174C30.7936 7.56524 31.1588 6.60869 31.1588 5.40209Z" fill="#B9B9B9"/>
<path d="M56.9238 18H52.1847C51.2718 16.587 50.2557 15.1859 49.1364 13.7967C48.0251 12.3996 46.8582 11.0461 45.6357 9.73634H45.3261V15.6185C45.3261 15.8805 45.3737 16.1147 45.469 16.3211C45.5722 16.5275 45.7547 16.6942 46.0167 16.8212C46.1437 16.8767 46.3779 16.9442 46.7192 17.0236C47.0685 17.103 47.3583 17.1466 47.5885 17.1546V18H40.5751V17.1546C40.7577 17.1387 41.0236 17.1149 41.3729 17.0831C41.7221 17.0514 41.9682 17.0038 42.1111 16.9403C42.3493 16.8371 42.5199 16.6862 42.6231 16.4878C42.7343 16.2814 42.7898 16.0353 42.7898 15.7495V3.55646C42.7898 3.28656 42.7422 3.05238 42.6469 2.85393C42.5596 2.65547 42.381 2.49274 42.1111 2.36573C41.8968 2.26253 41.6428 2.17124 41.349 2.09186C41.0553 2.01248 40.7973 1.96485 40.5751 1.94897V1.10355H47.5885V1.94897C47.3662 1.95691 47.0884 1.99263 46.755 2.05614C46.4216 2.11964 46.1755 2.17918 46.0167 2.23475C45.7468 2.33 45.5642 2.48877 45.469 2.71104C45.3737 2.93331 45.3261 3.17542 45.3261 3.43738V9.27196H45.5642C46.2787 8.66865 46.9812 8.04154 47.6718 7.3906C48.3624 6.73173 48.9896 6.07683 49.5532 5.4259C50.1803 4.70352 50.6367 4.12801 50.9225 3.69934C51.2162 3.26274 51.3631 2.87774 51.3631 2.54434C51.3631 2.42526 51.2877 2.33 51.1368 2.25856C50.994 2.17918 50.8273 2.11567 50.6367 2.06804C50.4145 2.02041 50.216 1.99263 50.0414 1.98469C49.8667 1.96882 49.7238 1.95691 49.6127 1.94897V1.10355H55.9474V1.94897C55.9236 1.94897 55.872 1.95294 55.7926 1.96088C55.7132 1.96882 55.6219 1.97675 55.5187 1.98469C55.4076 1.99263 55.2965 2.00851 55.1853 2.03232C55.0742 2.05614 54.9313 2.08392 54.7567 2.11567C54.4788 2.17918 54.1891 2.28238 53.8874 2.42526C53.5937 2.56021 53.3516 2.73088 53.1611 2.93728C52.3434 3.86604 51.4901 4.82657 50.601 5.81884C49.7119 6.81111 48.8308 7.71607 47.9576 8.5337C49.1642 9.89907 50.1604 11.0739 50.9463 12.0583C51.7401 13.0426 52.5816 14.0944 53.4707 15.2137C53.812 15.6424 54.1534 15.9877 54.4947 16.2496C54.836 16.5037 55.1298 16.6942 55.3758 16.8212C55.5822 16.9244 55.8402 17.0038 56.1498 17.0593C56.4594 17.1149 56.7174 17.1466 56.9238 17.1546V18Z" fill="#919191"/>
</svg>
