<svg width="53" height="12" viewBox="0 0 53 12" fill="none" xmlns="http://www.w3.org/2000/svg">
<path d="M8.41699 1.72607V3.47803C7.56217 2.76286 6.67773 2.40527 5.76367 2.40527C4.75651 2.40527 3.90804 2.76709 3.21826 3.49072C2.52425 4.21012 2.17725 5.09033 2.17725 6.13135C2.17725 7.15967 2.52425 8.02718 3.21826 8.73389C3.91227 9.44059 4.76286 9.79395 5.77002 9.79395C6.29053 9.79395 6.73275 9.70931 7.09668 9.54004C7.2998 9.4554 7.50928 9.34115 7.7251 9.19727C7.94515 9.05339 8.17578 8.87988 8.41699 8.67676V10.4604C7.57064 10.9386 6.68197 11.1777 5.75098 11.1777C4.35026 11.1777 3.15479 10.689 2.16455 9.71143C1.17855 8.72542 0.685547 7.5363 0.685547 6.14404C0.685547 4.89567 1.09814 3.78271 1.92334 2.80518C2.93896 1.60758 4.25293 1.00879 5.86523 1.00879C6.74544 1.00879 7.59603 1.24788 8.41699 1.72607Z" fill="#20AADE"/>
<path d="M14.6918 11L16.7548 0.462891L20.119 8.08008L23.6039 0.462891L25.4574 11H23.9403L22.9945 5.08398L20.0936 11.4507L17.2753 5.07764L16.2216 11H14.6918Z" fill="#DE207B"/>
<path d="M34.2649 6.76611L31.0657 1.19922H32.7669L35.0076 5.11572L37.2546 1.19922H38.9558L35.7439 6.76611V11H34.2649V6.76611Z" fill="#DECB20"/>
<path d="M46.3161 5.10938L50.131 1.19922H52.1051L47.6745 5.63623L52.1305 11H50.15L46.6207 6.63916L46.3161 6.94385V11H44.8371V1.19922H46.3161V5.10938Z" fill="black"/>
</svg>
