<svg width="71" height="72" viewBox="0 0 71 72" fill="none" xmlns="http://www.w3.org/2000/svg">
<path d="M16.5125 1.0822H54.1167C58.2738 1.11295 62.2503 2.7896 65.179 5.74657C68.1078 8.70355 69.7513 12.701 69.7511 16.8674V54.5539C69.736 58.7102 68.0857 62.6928 65.1586 65.6372C62.2315 68.5816 58.2638 70.2503 54.1167 70.2809H16.5125C12.3452 70.2809 8.34777 68.6259 5.3956 65.6781C2.44344 62.7304 0.777204 58.7303 0.761827 54.5539V16.8674C0.754144 14.7923 1.1563 12.7362 1.94513 10.8176C2.73396 8.89896 3.89385 7.15575 5.35797 5.68842C6.8221 4.22109 8.5615 3.05865 10.4759 2.2681C12.3904 1.47754 14.442 1.0745 16.5125 1.0822V1.0822Z" fill="url(#paint0_linear)"/>
<path d="M54.401 71.0964H16.1576C11.8764 71.0506 7.78435 69.322 4.76239 66.2825C1.74042 63.243 0.0302297 59.1358 0 54.8451L0 16.5761C0.0153151 12.2862 1.72254 8.17639 4.74936 5.14295C7.77618 2.1095 11.877 0.398527 16.1576 0.383179L54.401 0.383179C58.6815 0.398527 62.7824 2.1095 65.8092 5.14295C68.836 8.17639 70.5433 12.2862 70.5586 16.5761V54.9034C70.5433 59.1933 68.836 63.3031 65.8092 66.3366C62.7824 69.37 58.6815 71.081 54.401 71.0964ZM16.1576 2.65485C12.4735 2.65485 8.94029 4.12156 6.33525 6.73231C3.73021 9.34305 2.26671 12.884 2.26671 16.5761V54.8451C2.28187 58.538 3.7484 62.0761 6.34852 64.6928C8.94863 67.3096 12.4729 68.7941 16.1576 68.8247H54.401C56.2252 68.8247 58.0315 68.4646 59.7168 67.765C61.4021 67.0654 62.9334 66.0399 64.2233 64.7472C65.5132 63.4545 66.5364 61.9198 67.2345 60.2308C67.9326 58.5418 68.2919 56.7316 68.2919 54.9034V16.5761C68.2919 14.748 67.9326 12.9377 67.2345 11.2487C66.5364 9.55969 65.5132 8.02502 64.2233 6.73231C62.9334 5.43959 61.4021 4.41416 59.7168 3.71455C58.0315 3.01494 56.2252 2.65485 54.401 2.65485H16.1576Z" fill="white"/>
<path d="M23.247 36.3805C22.0721 36.0397 20.9691 35.4871 19.9922 34.7495C19.0098 34.0126 18.2135 33.055 17.6674 31.9536C17.0607 30.7493 16.6674 29.4485 16.505 28.1093C16.2978 26.7776 16.2978 25.4218 16.505 24.0901C16.813 22.9115 17.3459 21.8038 18.0742 20.8282C18.8484 19.8735 19.82 19.0984 20.9221 18.5566C22.2971 17.7148 23.852 17.2125 25.4587 17.091C27.0653 16.9695 28.6778 17.2322 30.1633 17.8576C30.7661 18.0873 31.3335 18.401 31.8488 18.7896C32.1407 19.035 32.368 19.3485 32.5106 19.7027C32.6531 20.0568 32.7067 20.4406 32.6665 20.8203C32.6263 21.2 32.4936 21.564 32.2801 21.8803C32.0666 22.1965 31.7788 22.4553 31.442 22.6339C31.0066 22.8662 30.51 22.9573 30.0207 22.8947C29.5314 22.8321 29.0735 22.6189 28.7103 22.2845L27.8385 21.5855C27.0976 21.2306 26.2669 21.1088 25.4555 21.236C24.7936 21.2985 24.156 21.5181 23.5957 21.8767C23.0537 22.3748 22.6357 22.9932 22.3751 23.6824C21.9969 24.2511 21.7215 24.882 21.5615 25.5463C21.4727 26.3399 21.4727 27.1409 21.5615 27.9345C21.6601 28.4811 21.8363 29.0107 22.0845 29.5072C22.3505 30.1968 22.745 30.8294 23.247 31.3712C23.7464 31.7836 24.3179 32.0996 24.9325 32.3031C25.6183 32.4833 26.3389 32.4833 27.0248 32.3031C27.4484 32.3697 27.8798 32.3697 28.3035 32.3031C28.6173 32.0965 28.8766 31.8166 29.059 31.4876C29.3732 31.2103 29.6299 30.8739 29.8146 30.4974C29.8873 30.0538 29.8873 29.6013 29.8146 29.1577C29.8146 29.1577 29.8146 29.1577 29.8146 29.1577L28.1872 29.5072C27.949 29.5397 27.7067 29.5225 27.4754 29.4567C27.2442 29.3909 27.029 29.2778 26.8434 29.1247C26.6578 28.9715 26.5059 28.7815 26.3971 28.5667C26.2883 28.3519 26.2249 28.1168 26.2111 27.8763C26.1785 27.6388 26.1935 27.3973 26.255 27.1657C26.3165 26.9341 26.4234 26.7171 26.5695 26.5274C26.7155 26.3376 26.8978 26.1789 27.1057 26.0605C27.3136 25.942 27.543 25.8663 27.7804 25.8376L32.8369 25.3134C33.1652 25.2634 33.5005 25.2845 33.82 25.3753C34.1395 25.4661 34.4359 25.6245 34.6893 25.8397C34.9426 26.055 35.147 26.3221 35.2886 26.6232C35.4303 26.9242 35.5059 27.2522 35.5104 27.585C35.599 28.3397 35.599 29.1021 35.5104 29.8567C35.3194 30.8039 34.9654 31.7106 34.4643 32.5361C33.9748 33.3237 33.3671 34.031 32.6625 34.633C31.9067 35.2408 31.0643 35.7316 30.1633 36.0892C29.2569 36.4717 28.2956 36.7076 27.3154 36.7882C26.0728 37.0789 24.7802 37.0789 23.5376 36.7882L23.247 36.3805ZM48.8201 45.8167C48.4322 45.5354 47.9618 45.3919 47.4833 45.4089C47.1509 45.3956 46.8207 45.4691 46.5252 45.6223C46.2297 45.7754 45.979 46.003 45.7978 46.2827C44.5415 47.6054 43.0106 48.6354 41.3132 49.2997C39.6159 49.964 37.7937 50.2464 35.9754 50.127H35.278C33.2715 50.1655 31.2799 49.775 29.4359 48.9815C27.5919 48.1881 25.9378 47.0099 24.5837 45.5254C24.3731 45.2438 24.1016 45.0136 23.7896 44.8522C23.4775 44.6908 23.133 44.6023 22.782 44.5935C22.3755 44.6059 21.9798 44.7277 21.6364 44.9461C21.2931 45.1646 21.0147 45.4715 20.8304 45.8349C20.6462 46.1983 20.5629 46.6046 20.5892 47.0113C20.6156 47.4181 20.7506 47.8102 20.9802 48.1466C22.6356 50.0794 24.6733 51.6468 26.9643 52.7497C29.2553 53.8526 31.7498 54.467 34.2899 54.5539H35.9754C38.4971 54.6517 41.0083 54.1789 43.3226 53.1705C45.6369 52.1621 47.6947 50.644 49.3432 48.7291C49.5953 48.2554 49.6809 47.7103 49.586 47.1819C49.4911 46.6535 49.2213 46.1725 48.8201 45.8167V45.8167ZM48.8201 27.2938C48.8201 29.0412 47.5414 29.7402 45.5653 29.5655L44.6935 29.5072C44.5827 29.5017 44.4744 29.4718 44.3764 29.4196C44.2785 29.3674 44.1931 29.2942 44.1266 29.2053C44.06 29.1163 44.0138 29.0137 43.9912 28.9048C43.9687 28.7959 43.9703 28.6834 43.9961 28.5752L44.4029 25.0804C44.4017 24.9627 44.4259 24.8462 44.4739 24.7388C44.5218 24.6315 44.5924 24.5358 44.6807 24.4583C44.7691 24.3808 44.8731 24.3234 44.9857 24.29C45.0982 24.2567 45.2167 24.2481 45.3328 24.2649H46.2628C48.2389 24.2649 49.1107 25.4298 48.8782 27.1773L48.8201 27.2938ZM53.2373 22.4592C51.8921 21.006 50.039 20.1295 48.0645 20.0128L42.2524 19.3138C41.9194 19.2648 41.58 19.2838 41.2545 19.3695C40.929 19.4553 40.6241 19.606 40.3582 19.8127C40.0922 20.0194 39.8706 20.2778 39.7068 20.5724C39.5429 20.8671 39.4401 21.1918 39.4045 21.5272L37.4865 37.0212C37.4462 37.3734 37.4761 37.7302 37.5743 38.0707C37.6726 38.4113 37.8373 38.729 38.059 39.0053C38.2806 39.2816 38.5548 39.5111 38.8656 39.6804C39.1764 39.8498 39.5176 39.9556 39.8695 39.9919C40.5764 40.0579 41.2811 39.8455 41.8344 39.3997C42.3877 38.9539 42.7461 38.3097 42.8336 37.6037L43.2986 33.4681L46.4953 33.8176C47.4916 34.04 48.5232 34.0513 49.5242 33.8507C50.5251 33.6501 51.4731 33.242 52.3073 32.6526C53.7211 31.4235 54.5976 29.6877 54.7484 27.818C54.9074 26.9069 54.8813 25.9729 54.6715 25.0721C54.4618 24.1713 54.0728 23.3222 53.5279 22.5757" fill="white"/>
<defs>
<linearGradient id="paint0_linear" x1="72.2945" y1="36.6858" x2="0.00160812" y2="36.6858" gradientUnits="userSpaceOnUse">
<stop stop-color="#8B04FC"/>
<stop offset="1" stop-color="#E540AC"/>
</linearGradient>
</defs>
</svg>
