<svg width="247" height="68" viewBox="0 0 247 68" fill="none" xmlns="http://www.w3.org/2000/svg">
<g clip-path="url(#clip0)">
<path d="M0.357572 24.401C0.447041 21.4406 0.715451 18.7493 1.25227 16.2375C1.25227 9.06068 5.99417 3.31925 11.8097 3.22954C22.3672 -0.358846 34.3561 0.986801 45.0925 1.34564C65.939 1.97361 146.193 0.179413 154.246 0.717671C166.056 1.52506 178.76 1.07651 188.96 1.07651C199.16 1.16622 213.654 -1.16623 224.301 0.627962C234.948 2.42216 240.226 2.33245 242.374 7.98416C245.326 15.9683 246.936 27.0026 246.31 35.7045C245.773 43.1504 243.268 50.5963 238.258 55.2612C233.695 59.5673 220.453 60.5541 214.817 60.5541C213.027 61.9894 211.954 63.6939 210.791 65.9367C210.343 66.9235 209.807 67.9103 208.733 68C207.57 68.0897 206.943 66.9235 206.407 65.9367C205.333 63.7836 204.349 61.6306 202.917 59.8364C192.091 58.9393 186.544 57.0554 170.35 56.9657C154.067 56.7863 33.9982 59.2084 21.9198 58.2216C19.0568 57.9525 15.6569 57.8628 12.436 57.1451H11.8992C7.33622 57.1451 3.48902 53.6464 1.96803 48.8021C1.96803 48.8021 1.96803 48.8021 1.96803 48.7124C-0.626597 41.4459 -0.000307881 32.2058 0.357572 24.401Z" fill="#5FB3DD"/>
</g>
<path d="M56.1804 29.3624H60.482V24.9392H63.4612V36.4H60.482V31.6728H56.1804V36.4H53.2012V24.9392H56.1804V29.3624Z" fill="white"/>
<path d="M75.4237 27.4624H71.8821V29.3776H75.2261V31.9008H71.8821V33.8768H75.4237V36.4H68.9029V24.9392H75.4237V27.4624Z" fill="white"/>
<path d="M83.5908 24.9392V33.8768H87.1628V36.4H80.6116V24.9392H83.5908Z" fill="white"/>
<path d="M94.7207 24.9392V33.8768H98.2927V36.4H91.7415V24.9392H94.7207Z" fill="white"/>
<path d="M105.248 30.6696C105.248 31.1256 105.334 31.5461 105.506 31.9312C105.679 32.3163 105.912 32.6507 106.205 32.9344C106.499 33.2181 106.839 33.4411 107.224 33.6032C107.619 33.7552 108.035 33.8312 108.47 33.8312C108.906 33.8312 109.316 33.7552 109.701 33.6032C110.097 33.4411 110.441 33.2181 110.735 32.9344C111.039 32.6507 111.277 32.3163 111.449 31.9312C111.622 31.5461 111.708 31.1256 111.708 30.6696C111.708 30.2136 111.622 29.7931 111.449 29.408C111.277 29.0229 111.039 28.6885 110.735 28.4048C110.441 28.1211 110.097 27.9032 109.701 27.7512C109.316 27.5891 108.906 27.508 108.47 27.508C108.035 27.508 107.619 27.5891 107.224 27.7512C106.839 27.9032 106.499 28.1211 106.205 28.4048C105.912 28.6885 105.679 29.0229 105.506 29.408C105.334 29.7931 105.248 30.2136 105.248 30.6696ZM102.132 30.6696C102.132 29.8184 102.289 29.028 102.603 28.2984C102.917 27.5587 103.353 26.9152 103.91 26.368C104.468 25.8208 105.131 25.3952 105.901 25.0912C106.682 24.7771 107.538 24.62 108.47 24.62C109.392 24.62 110.244 24.7771 111.024 25.0912C111.804 25.3952 112.473 25.8208 113.03 26.368C113.598 26.9152 114.039 27.5587 114.353 28.2984C114.667 29.028 114.824 29.8184 114.824 30.6696C114.824 31.5208 114.667 32.3163 114.353 33.056C114.039 33.7856 113.598 34.424 113.03 34.9712C112.473 35.5184 111.804 35.9491 111.024 36.2632C110.244 36.5672 109.392 36.7192 108.47 36.7192C107.538 36.7192 106.682 36.5672 105.901 36.2632C105.131 35.9491 104.468 35.5184 103.91 34.9712C103.353 34.424 102.917 33.7856 102.603 33.056C102.289 32.3163 102.132 31.5208 102.132 30.6696Z" fill="white"/>
<path d="M132.299 27.4624V36.4H129.319V27.4624H126.872V24.9392H134.746V27.4624H132.299Z" fill="white"/>
<path d="M142.09 29.3624H146.392V24.9392H149.371V36.4H146.392V31.6728H142.09V36.4H139.111V24.9392H142.09V29.3624Z" fill="white"/>
<path d="M161.333 27.4624H157.792V29.3776H161.136V31.9008H157.792V33.8768H161.333V36.4H154.813V24.9392H161.333V27.4624Z" fill="white"/>
<path d="M169.501 30.0616H170.063C170.651 30.0616 171.102 29.94 171.416 29.6968C171.73 29.4536 171.887 29.104 171.887 28.648C171.887 28.192 171.73 27.8424 171.416 27.5992C171.102 27.356 170.651 27.2344 170.063 27.2344H169.501V30.0616ZM176.052 36.4H172.343L169.501 31.992V36.4H166.521V24.9392H171.157C171.796 24.9392 172.353 25.0355 172.829 25.228C173.306 25.4104 173.696 25.6637 174 25.988C174.314 26.3123 174.547 26.6872 174.699 27.1128C174.861 27.5384 174.942 27.9944 174.942 28.4808C174.942 29.3523 174.729 30.0616 174.304 30.6088C173.888 31.1459 173.27 31.5107 172.449 31.7032L176.052 36.4Z" fill="white"/>
<path d="M186.859 27.4624H183.317V29.3776H186.661V31.9008H183.317V33.8768H186.859V36.4H180.338V24.9392H186.859V27.4624Z" fill="white"/>
<defs>
<clipPath id="clip0">
<rect width="246.4" height="68" fill="white"/>
</clipPath>
</defs>
</svg>
