<svg width="1027" height="573" viewBox="0 0 1027 573" fill="none" xmlns="http://www.w3.org/2000/svg">
<path d="M1016.84 399.433C1005.89 391.782 990.887 394.198 982.777 405.071C966.151 428.025 912.626 488.834 866.805 493.667C845.314 496.083 819.362 488.834 789.356 417.152C791.789 416.347 794.627 415.542 797.06 414.736C868.833 391.782 902.489 330.168 893.568 283.454C887.891 253.251 865.589 233.921 835.177 231.907C848.963 204.926 861.128 177.139 871.266 148.95C882.62 116.733 890.324 87.7381 893.162 65.9919C895.19 52.7026 900.056 17.2643 875.726 3.97501C845.314 -12.536 814.496 26.5266 799.493 45.4538C760.566 94.9868 711.906 246.405 678.656 369.633C669.735 373.66 665.68 380.506 664.058 384.13C660.003 393.393 661.625 403.863 667.707 411.917C666.896 415.139 666.085 418.36 665.274 421.179C662.842 426.012 660.814 430.844 658.787 434.871C638.106 462.658 613.371 481.586 587.014 489.237C566.739 494.875 546.87 493.264 531.867 485.21C528.217 483.196 520.107 466.283 527.001 416.347C532.272 379.701 542.815 345.068 543.221 344.665C546.059 335 542.815 324.932 535.111 318.489C527.406 312.449 516.458 311.24 507.943 316.476C491.317 326.141 455.228 322.114 438.198 320.1C421.978 318.086 410.218 316.878 400.892 328.154C396.432 333.389 394.81 340.235 395.621 346.679C396.026 372.049 379.806 505.345 324.659 514.205C302.762 517.829 286.948 512.191 275.189 497.694C267.89 488.432 263.429 476.753 261.402 464.672C299.518 409.904 323.443 353.525 324.659 351.108C327.903 343.86 327.092 335.403 323.037 328.96C321.821 322.919 318.171 317.281 312.9 313.657C309.25 311.24 220.853 253.251 111.369 312.851C40.813 351.511 -6.22441 423.193 0.668995 483.196C3.50746 507.359 17.6998 550.448 82.5789 568.973C92.3108 571.792 101.637 573 110.963 573C155.162 573 194.901 544.408 226.935 509.775C230.179 516.218 233.828 521.856 238.289 527.494C260.591 556.086 294.653 568.168 333.985 561.724C361.965 557.294 385.483 539.575 404.136 509.372C428.871 468.296 441.036 407.085 444.28 369.23C456.445 370.438 471.854 371.646 487.262 370.438C475.098 423.596 465.771 502.929 509.565 527.494C535.922 542.394 568.767 545.213 602.017 535.951C617.426 531.521 632.024 524.675 646.216 515.413C643.783 528.702 642.567 538.367 642.567 543.602C642.972 556.892 653.515 567.362 666.896 567.362H667.302C680.683 566.959 691.632 556.086 691.226 542.797C691.226 533.132 698.12 496.888 709.879 448.966C712.717 444.536 715.556 439.704 718.394 434.871C719.205 433.261 720.422 431.247 721.233 429.636C727.721 429.636 734.209 428.831 741.507 428.025C741.507 428.428 741.913 428.831 741.913 428.831C742.724 430.844 743.535 432.858 744.751 435.274C757.322 465.075 789.356 542.394 861.128 542.394C864.778 542.394 868.833 541.992 872.482 541.589C905.733 537.965 941.416 518.232 978.316 482.794C1004.67 457.826 1021.7 434.066 1022.52 432.858C1030.22 422.388 1027.79 407.085 1016.84 399.433ZM222.474 401.044C215.987 416.347 212.743 433.663 213.148 450.98C181.925 492.056 138.537 534.743 96.3657 522.662C67.5756 514.608 51.7613 499.305 49.3283 477.961C44.8679 438.093 82.9844 384.13 136.104 355.135C164.894 339.43 191.251 334.597 213.959 334.597C233.828 334.597 250.454 338.625 263.024 342.652C249.237 355.538 233.828 374.465 222.474 401.044ZM445.091 345.873C445.091 341.443 444.685 337.819 443.874 336.208C445.091 339.43 445.091 342.652 445.091 345.873ZM838.826 75.2542C840.448 72.8379 842.476 70.8244 844.098 68.8108C841.259 83.711 835.582 104.652 825.85 133.244C809.225 180.361 784.895 226.672 758.133 272.178C784.49 186.401 814.091 106.263 838.826 75.2542ZM753.267 376.479C752.861 376.479 752.456 376.076 752.05 376.076C756.916 368.022 761.782 359.968 766.648 351.914C776.785 335 786.923 318.489 797.06 301.173C809.225 288.286 819.768 280.635 828.283 279.829C839.232 279.024 844.098 282.648 845.72 291.911C852.207 326.141 812.874 358.357 782.057 368.022C771.109 372.049 761.782 374.465 753.267 376.479Z" fill="#F7F7F7"/>
</svg>
