<svg width="141" height="54" viewBox="0 0 141 54" fill="none" xmlns="http://www.w3.org/2000/svg">
<g clip-path="url(#clip0)">
<path d="M130.5 39.9782C126 37.2931 120.9 35.8014 116.1 34.0113C111.3 32.5196 106.5 31.3262 101.4 30.1329C91.5 28.0445 81 27.1494 70.8 27.4478C66.9 27.4478 63.3 27.7461 59.7 28.3428C59.7 27.4478 59.7 26.8511 59.7 25.9561C67.8 17.6025 75.9 8.95053 84.3 0.895281C84.9 0.298596 84 -0.298089 83.7 0.000253472C75.9 7.75716 67.8 15.2157 60 22.6743C60.3 15.2157 60.6 7.45882 60.6 4.77373C60.6 3.87871 59.1 3.58036 59.1 4.47539C58.8 7.45882 58.5 16.1108 58.2 24.166C56.4 25.9561 54.3 27.7461 52.5 29.5362C51.6 30.4312 51.9 31.9229 53.4 31.9229C54.9 31.6246 56.4 31.6246 57.9 31.3262C57.9 32.8179 57.9 34.3096 57.6 35.2047C54.6 34.608 51.3 33.713 48.3 33.1163C43.5 31.9229 39 30.7295 34.2 30.1329C32.1 29.8345 29.7 29.8345 27.6 30.4312C26.4 30.7295 23.4 32.2212 22.5 31.0279C24.9 28.3428 26.4 25.3594 27.6 22.0776C27.9 21.7793 27.9 21.1826 27.9 20.8842C28.2 19.3925 25.8 19.0942 25.5 20.5859C25.5 20.8842 25.2 21.4809 25.2 21.7793C24.3 22.9726 22.8 24.166 21.6 25.3594C20.4 26.5527 19.8 28.3428 19.5 29.8345V30.1329C18.3 31.3262 16.8 32.5196 15.3 33.4146C12.9 34.9063 9.9 35.8014 6.9 35.503C3.6 35.2047 1.8 32.5196 2.1 29.5362C3 26.2544 5.1 23.8677 7.5 21.7793C9.6 19.9892 11.7 18.4975 14.4 17.0058C19.2 14.619 24.6 13.1273 30 12.829C36.3 12.5306 42.6 13.724 48.3 16.4091C49.2 17.0058 49.8 15.5141 48.9 14.9174C37.5 9.24887 23.4 9.54722 12 15.8124C6.9 18.7958 0 23.8677 0 30.7295C0 33.713 1.8 36.398 4.8 37.5914C7.8 38.7848 11.4 38.1881 14.4 36.9947C16.8 35.8014 18.9 34.608 20.7 32.8179C21 33.1163 21.3 33.4146 21.9 33.713C24 34.9063 26.1 33.4146 28.2 32.8179C33 31.6246 38.4 33.4146 43.2 34.608C48 35.8014 52.8 36.6964 57.6 37.8898C57.3 42.9616 56.7 47.7351 56.7 52.8069C56.7 54.0003 58.5 54.2986 58.5 53.1052C58.5 52.5085 58.5 51.9119 58.5 51.3152C58.8 47.1384 58.8 42.6632 59.1 38.4864H59.4C65.7 39.9782 72 41.4699 78.3 42.6632C79.8 42.9616 80.1 40.8732 78.6 40.2765C72.3 38.4864 65.7 36.9947 59.1 35.503C59.1 34.3096 59.1 32.8179 59.4 31.0279C77.4 29.2378 95.7 30.4312 113.1 35.2047C118.8 36.6964 124.2 39.0831 129.6 40.8732C130.5 41.1715 131.1 40.2765 130.5 39.9782ZM57 28.6411C57.3 28.3428 57.9 27.7461 58.2 27.4478C58.2 27.7461 58.2 28.0445 58.2 28.6411C57.6 28.6411 57.3 28.6411 57 28.6411Z" fill="#ADADAD"/>
<path d="M83.6988 17.9009C83.3988 19.0943 84.2988 20.2876 85.4988 20.586C86.0988 20.586 86.6988 20.586 87.2988 19.9893C87.5988 19.691 87.8988 19.0943 87.8988 18.4976C87.8988 17.9009 87.8988 17.3042 87.2988 17.0059L86.9988 16.7075C86.9988 16.4092 86.6988 16.1108 86.3988 15.8125C85.7988 15.8125 85.1988 15.8125 84.5988 16.1108C83.9988 16.7075 83.6988 17.3042 83.6988 17.9009Z" fill="#ADADAD"/>
<path d="M140.4 11.039C138.9 10.7407 137.1 11.6357 135.6 11.9341C133.8 12.5308 132 12.8291 130.2 13.4258C126.6 14.6192 123 15.5142 119.4 16.7076C112.2 18.796 105 21.1827 97.8002 23.2711C96.3002 23.5694 97.2002 25.6578 98.7002 25.3595L120 18.796C123.6 17.6026 126.9 16.7076 130.5 15.5142C132.3 14.9175 134.1 14.3208 135.9 13.7241C137.4 13.1274 139.5 12.8291 140.7 11.6357C141 11.6357 141 11.039 140.4 11.039Z" fill="#ADADAD"/>
</g>
<defs>
<clipPath id="clip0">
<rect width="141" height="54" fill="white"/>
</clipPath>
</defs>
</svg>
